<svg id="SLOGAN" xmlns="http://www.w3.org/2000/svg" viewBox="0 0 294.094 34.624"><g id="slogan-2" data-name="slogan"><g id="claim-vietnamese"><path d="M15.855,9.29c-1.069-2.463-2.464-3.384-5.135-3.384-2.7,0-4.333,1.276-4.333,3.414A2.69,2.69,0,0,0,7.841,11.9a11.708,11.708,0,0,0,3.681,1.188c2.671.594,4.1,1.157,5.223,2.047A5.368,5.368,0,0,1,18.7,19.471c0,3.739-2.909,6.143-7.45,6.143-4.244,0-7.212-2.137-8.221-5.936l2.344-.416c.831,2.879,2.761,4.3,5.877,4.3S16.3,22.023,16.3,19.529a3.18,3.18,0,0,0-1.039-2.493c-.831-.712-1.692-1.038-4.719-1.78a12.412,12.412,0,0,1-4.779-1.9A4.633,4.633,0,0,1,3.982,9.5c0-3.472,2.583-5.639,6.708-5.639,3.74,0,6.025,1.514,7.361,4.838Z"/><path d="M35.054,25.436c-.326.03-.623.03-.861.03a3.033,3.033,0,0,1-3.2-2.226,5.86,5.86,0,0,1-4.778,2.374c-2.879,0-4.9-1.781-4.9-4.274,0-2.285,1.514-3.918,4.274-4.66a21.152,21.152,0,0,1,5.253-.594v-.979c0-2.4-.949-3.5-3.056-3.5a6.279,6.279,0,0,0-4.452,1.93l-1.455-1.6a8.061,8.061,0,0,1,5.907-2.374c3.561,0,5.52,1.959,5.52,5.55v6.916c0,1.1.416,1.454,1.751,1.484Zm-4.215-7.6c-4.986.178-7.063,1.157-7.063,3.383,0,1.543,1.009,2.4,2.849,2.4,2.464,0,4.214-1.424,4.214-3.413ZM28.673,3h3.235L28.643,7.805H26.952Z"/><path d="M38.553,9.824h2.463V12.2a4.96,4.96,0,0,1,4.72-2.642c3.324,0,5.134,2.166,5.134,6.173v9.617H48.407v-9.8c0-2.671-1.009-3.858-3.294-3.858a3.865,3.865,0,0,0-4.1,4.155v9.5H38.553Z"/><path d="M62.828,21.964c3.5,0,5.462,1.513,5.462,4.184,0,3.057-2.82,4.987-7.331,4.987-4.186,0-6.857-1.663-6.857-4.275,0-1.394.861-2.493,2.642-3.323a2.625,2.625,0,0,1-1.514-2.494A2.919,2.919,0,0,1,56.922,18.4a4.655,4.655,0,0,1-1.9-3.8c0-3,2.316-5.046,5.7-5.046a6.957,6.957,0,0,1,3.087.653q1.959-.268,4.452-.623v2.226H65.945a4.5,4.5,0,0,1,1.009,2.967c0,3.058-2.256,4.928-5.877,4.928a6.82,6.82,0,0,1-2.819-.535,1.8,1.8,0,0,0-.8,1.455c0,1.009.535,1.336,2.286,1.336ZM59.445,24.1c-.238,0-.742-.03-.979-.059-1.366.682-1.959,1.483-1.959,2.582,0,1.692,1.513,2.553,4.511,2.553,3.2,0,4.868-1.01,4.868-2.909,0-1.454-1.039-2.167-3.087-2.167Zm-1.959-9.5c0,1.929,1.365,3.146,3.591,3.146,2.2,0,3.414-1.1,3.414-3.087,0-1.9-1.366-3.146-3.532-3.146S57.486,12.673,57.486,14.6Z"/><path d="M77.575,9.824h2.374V5.788l2.464-.594v4.63H86.33v2.048H82.413V21.34c0,1.514.564,2.226,1.78,2.226a3.217,3.217,0,0,0,2.108-.742l.95,1.692a4.743,4.743,0,0,1-3.206,1.1c-2.523,0-4.1-1.454-4.1-3.8V11.872H77.575Z"/><path d="M103.216,25.436c-.326.03-.623.03-.86.03A3.033,3.033,0,0,1,99.15,23.24a5.86,5.86,0,0,1-4.778,2.374c-2.879,0-4.9-1.781-4.9-4.274,0-2.285,1.513-3.918,4.274-4.66A21.139,21.139,0,0,1,99,16.086v-.979c0-2.4-.95-3.5-3.057-3.5a6.279,6.279,0,0,0-4.452,1.93l-1.455-1.6a8.061,8.061,0,0,1,5.907-2.374c3.561,0,5.52,1.959,5.52,5.55v6.916c0,1.1.416,1.454,1.751,1.484ZM99,17.838c-4.987.178-7.064,1.157-7.064,3.383,0,1.543,1.009,2.4,2.849,2.4C97.251,23.625,99,22.2,99,20.212Z"/><path d="M119.775,17.571c0,4.689-3.057,8.043-7.361,8.043-4.215,0-7.3-3.384-7.3-8.014,0-4.69,3.057-8.043,7.39-8.043C116.718,9.557,119.775,12.94,119.775,17.571Zm-12.109.059c0,3.651,1.84,5.936,4.748,5.936,2.939,0,4.808-2.315,4.808-5.966,0-3.621-1.869-6-4.719-6C109.506,11.6,107.666,13.86,107.666,17.63Z"/><path d="M127.665,9.824h2.672l4.154,13.03,4.067-13.03h2.552l-5.224,15.523h-2.908Z"/><path d="M142.013,3h3.235l1.722,4.807h-1.693Zm2.434,6.826h2.463V25.347h-2.463Z"/><path d="M170.652,22.023a6.856,6.856,0,0,1-6.292,3.591c-4.275,0-7.243-3.294-7.243-8.014,0-4.808,2.88-8.043,7.153-8.043a6.576,6.576,0,0,1,6.024,3.383l-1.958,1.306C167.06,12.257,166.08,11.6,164.3,11.6c-2.909,0-4.631,2.226-4.631,6.055,0,3.77,1.692,5.907,4.691,5.907,1.987,0,3.146-.712,4.392-2.731Z"/><path d="M183.232,22.972a4.958,4.958,0,0,1-4.718,2.642c-3.265,0-5.016-2.167-5.016-6.173V9.824h2.463v9.794c0,2.672.979,3.859,3.176,3.859a3.864,3.864,0,0,0,4.095-4.155v-9.5H185.7V25.347h-2.464Z"/><path d="M203.5,17.571c0,4.689-3.058,8.043-7.361,8.043-4.215,0-7.3-3.384-7.3-8.014,0-4.69,3.057-8.043,7.39-8.043C200.444,9.557,203.5,12.94,203.5,17.571Zm-12.11.059c0,3.651,1.84,5.936,4.749,5.936,2.938,0,4.808-2.315,4.808-5.966,0-3.621-1.87-6-4.72-6C193.232,11.6,191.392,13.86,191.392,17.63ZM195.221,3h2.225l2.88,4.807h-1.692l-2.346-2.7-2.344,2.7h-1.632Z"/><path d="M219.7,22.023a6.851,6.851,0,0,1-6.292,3.591c-4.273,0-7.241-3.294-7.241-8.014,0-4.808,2.878-8.043,7.152-8.043a6.582,6.582,0,0,1,6.026,3.383l-1.959,1.306c-1.276-1.989-2.256-2.642-4.037-2.642-2.908,0-4.629,2.226-4.629,6.055,0,3.77,1.691,5.907,4.688,5.907,1.989,0,3.146-.712,4.393-2.731Z"/><path d="M238.664,13.445A4.52,4.52,0,0,0,234.9,11.6c-1.84,0-2.881.772-2.881,2.108a1.847,1.847,0,0,0,.773,1.544,8.269,8.269,0,0,0,2.79.979c2.374.564,3.205.92,4.095,1.721a4.089,4.089,0,0,1,1.217,3.028c0,2.819-2.285,4.63-5.847,4.63a7.556,7.556,0,0,1-6.41-3l1.781-1.455c1.394,1.84,2.463,2.4,4.541,2.4,2.285,0,3.531-.861,3.531-2.375a1.967,1.967,0,0,0-.89-1.72c-.593-.416-.95-.506-3.116-1.04-3.473-.831-4.868-2.166-4.868-4.571,0-2.671,2.018-4.3,5.313-4.3a6.437,6.437,0,0,1,5.342,2.256Z"/><path d="M258.1,17.571c0,4.689-3.059,8.043-7.362,8.043-4.214,0-7.3-3.384-7.3-8.014,0-4.69,3.057-8.043,7.39-8.043C255.043,9.557,258.1,12.94,258.1,17.571Zm-12.11.059c0,3.651,1.84,5.936,4.748,5.936,2.94,0,4.809-2.315,4.809-5.966,0-3.621-1.869-6-4.72-6C247.832,11.6,245.992,13.86,245.992,17.63ZM249.82,3h2.226l2.88,4.807h-1.693l-2.344-2.7-2.345,2.7h-1.633Z"/><path d="M258.07,3h3.235L258.04,7.805h-1.691Z"/><path d="M261.689,9.824h2.463V12.2a4.96,4.96,0,0,1,4.72-2.642c3.325,0,5.135,2.166,5.135,6.173v9.617h-2.463v-9.8c0-2.671-1.011-3.858-3.295-3.858a3.865,3.865,0,0,0-4.1,4.155v9.5h-2.463Z"/><path d="M286.172,21.964c3.5,0,5.461,1.513,5.461,4.184,0,3.057-2.819,4.987-7.331,4.987-4.186,0-6.855-1.663-6.855-4.275,0-1.394.859-2.493,2.64-3.323a2.624,2.624,0,0,1-1.513-2.494,2.918,2.918,0,0,1,1.691-2.641,4.654,4.654,0,0,1-1.9-3.8c0-3,2.314-5.046,5.7-5.046a6.96,6.96,0,0,1,3.087.653q1.959-.268,4.452-.623v2.226h-2.314A4.5,4.5,0,0,1,290.3,14.78c0,3.058-2.255,4.928-5.875,4.928a6.826,6.826,0,0,1-2.821-.535,1.8,1.8,0,0,0-.8,1.455c0,1.009.534,1.336,2.287,1.336ZM282.788,24.1c-.238,0-.742-.03-.979-.059-1.365.682-1.959,1.483-1.959,2.582,0,1.692,1.513,2.553,4.512,2.553,3.206,0,4.867-1.01,4.867-2.909,0-1.454-1.038-2.167-3.087-2.167Zm-1.959-9.5c0,1.929,1.365,3.146,3.593,3.146,2.195,0,3.412-1.1,3.412-3.087,0-1.9-1.366-3.146-3.532-3.146S280.829,12.673,280.829,14.6Z"/><path d="M98.1,29.84a1.913,1.913,0,0,1-1.9,1.9,1.9,1.9,0,0,1,0-3.8A1.913,1.913,0,0,1,98.1,29.84Z"/><path d="M198.14,29.839a1.913,1.913,0,0,1-1.9,1.9,1.9,1.9,0,1,1,0-3.8A1.913,1.913,0,0,1,198.14,29.839Z"/></g></g></svg>